<svg width="17" height="13" viewBox="0 0 17 13" version="1.1" xmlns="http://www.w3.org/2000/svg" xmlns:xlink="http://www.w3.org/1999/xlink">
<title>Vector 2</title>
<desc>Created using Figma</desc>
<g id="Canvas" transform="translate(-47 -22)">
<g id="Ellipse">
<mask id="mask0_outline_ins">
<use xlink:href="#path0_fill" fill="white"/>
</mask>
<g mask="url(#mask0_outline_ins)">
<use xlink:href="#path1_stroke_2x"/>
</g>
</g>
<g id="Vector 2">
<use xlink:href="#path2_fill" transform="translate(48 23)"/>
<use xlink:href="#path3_stroke" transform="translate(48 23)"/>
</g>
<g id="Vector 4">
<use xlink:href="#path4_fill" transform="translate(19.5 15.5)"/>
<use xlink:href="#path5_stroke" transform="translate(19.5 15.5)"/>
</g>
</g>
<defs>
<path id="path0_fill" d="M 64 32C 64 49.6731 49.6731 64 32 64C 14.3269 64 0 49.6731 0 32C 0 14.3269 14.3269 0 32 0C 49.6731 0 64 14.3269 64 32Z"/>
<path id="path1_stroke_2x" d="M 63 32C 63 49.1208 49.1208 63 32 63L 32 65C 50.2254 65 65 50.2254 65 32L 63 32ZM 32 63C 14.8792 63 1 49.1208 1 32L -1 32C -1 50.2254 13.7746 65 32 65L 32 63ZM 1 32C 1 14.8792 14.8792 1 32 1L 32 -1C 13.7746 -1 -1 13.7746 -1 32L 1 32ZM 32 1C 49.1208 1 63 14.8792 63 32L 65 32C 65 13.7746 50.2254 -1 32 -1L 32 1Z"/>
<path id="path2_fill" d="M 0 8.5L 7 0L 1.5 10.5L 0 8.5Z"/>
<path id="path3_stroke" d="M 7 0L 7.38097 -0.323824L 6.99393 -0.77916L 6.61403 -0.317854L 7 0ZM 0 8.5L -0.385965 8.18215L -0.635832 8.48556L -0.4 8.8L 0 8.5ZM 1.5 10.5L 1.1 10.8L 1.57533 11.4338L 1.94292 10.732L 1.5 10.5ZM 15.881 9.67618L 7.38097 -0.323824L 6.61903 0.323824L 15.119 10.3238L 15.881 9.67618ZM 6.61403 -0.317854L -0.385965 8.18215L 0.385965 8.81785L 7.38597 0.317854L 6.61403 -0.317854ZM -0.4 8.8L 1.1 10.8L 1.9 10.2L 0.4 8.2L -0.4 8.8ZM 1.94292 10.732L 7.44292 0.232003L 6.55708 -0.232003L 1.05708 10.268L 1.94292 10.732Z"/>
<path id="path4_fill" d="M 0 18L 15.5 0L 5 23.5L 0 18Z"/>
<path id="path5_stroke" d="M 15.5 0L 15.8892 -0.313876L 15.5126 -0.780879L 15.1211 -0.326262L 15.5 0ZM 0 18L -0.378884 17.6737L -0.667566 18.009L -0.36997 18.3363L 0 18ZM 5 23.5L 4.63003 23.8363L 5.1445 24.4023L 5.4565 23.704L 5 23.5ZM 40.8892 30.6861L 15.8892 -0.313876L 15.1108 0.313876L 40.1108 31.3139L 40.8892 30.6861ZM 15.1211 -0.326262L -0.378884 17.6737L 0.378884 18.3263L 15.8789 0.326262L 15.1211 -0.326262ZM -0.36997 18.3363L 4.63003 23.8363L 5.36997 23.1637L 0.36997 17.6637L -0.36997 18.3363ZM 5.4565 23.704L 15.9565 0.20397L 15.0435 -0.20397L 4.5435 23.296L 5.4565 23.704Z"/>
</defs>
</svg>
