<svg width="46" height="14" viewBox="0 0 46 14" version="1.1" xmlns="http://www.w3.org/2000/svg" xmlns:xlink="http://www.w3.org/1999/xlink">
<title>Vector 5</title>
<desc>Created using Figma</desc>
<g id="Canvas" transform="translate(-12 -50)">
<g id="Ellipse">
<mask id="mask0_outline_ins">
<use xlink:href="#path0_fill" fill="white"/>
</mask>
<g mask="url(#mask0_outline_ins)">
<use xlink:href="#path1_stroke_2x"/>
</g>
</g>
<g id="Vector 5">
<use xlink:href="#path2_fill" transform="translate(13.5 50.5)"/>
<use xlink:href="#path3_stroke" transform="translate(13.5 50.5)"/>
</g>
<g id="Vector 3">
<use xlink:href="#path4_fill" transform="translate(2 26.5)"/>
<use xlink:href="#path5_stroke" transform="translate(2 26.5)"/>
</g>
</g>
<defs>
<path id="path0_fill" d="M 64 32C 64 49.6731 49.6731 64 32 64C 14.3269 64 0 49.6731 0 32C 0 14.3269 14.3269 0 32 0C 49.6731 0 64 14.3269 64 32Z"/>
<path id="path1_stroke_2x" d="M 63 32C 63 49.1208 49.1208 63 32 63L 32 65C 50.2254 65 65 50.2254 65 32L 63 32ZM 32 63C 14.8792 63 1 49.1208 1 32L -1 32C -1 50.2254 13.7746 65 32 65L 32 63ZM 1 32C 1 14.8792 14.8792 1 32 1L 32 -1C 13.7746 -1 -1 13.7746 -1 32L 1 32ZM 32 1C 49.1208 1 63 14.8792 63 32L 65 32C 65 13.7746 50.2254 -1 32 -1L 32 1Z"/>
<path id="path2_fill" d="M 25 7L 0 7C 0 7 6.5 13 19.5 13C 32.5 13 43 0 43 0L 19.5 0L 25 7Z"/>
<path id="path3_stroke" d="M 0 7L 0 6.5L -1.27883 6.5L -0.33914 7.3674L 0 7ZM 25 7L 25 7.5L 26.0287 7.5L 25.3932 6.69109L 25 7ZM 19.5 0L 19.5 -0.5L 18.4713 -0.5L 19.1068 0.308911L 19.5 0ZM 43 0L 43.389 0.314169L 44.0466 -0.5L 43 -0.5L 43 0ZM 0 7.5L 25 7.5L 25 6.5L 0 6.5L 0 7.5ZM 25.3932 6.69109L 19.8932 -0.308911L 19.1068 0.308911L 24.6068 7.30891L 25.3932 6.69109ZM 19.5 0.5L 43 0.5L 43 -0.5L 19.5 -0.5L 19.5 0.5ZM 43 0C 42.611 -0.314169 42.6111 -0.314234 42.6111 -0.31425C 42.611 -0.31419 42.611 -0.314157 42.6109 -0.314036C 42.6107 -0.313718 42.6104 -0.313357 42.6099 -0.312725C 42.6087 -0.311305 42.6072 -0.309416 42.6049 -0.306604C 42.6 -0.300669 42.5932 -0.292294 42.5836 -0.280628C 42.5638 -0.256674 42.5352 -0.222129 42.4962 -0.17583C 42.4173 -0.0819634 42.3017 0.0535271 42.1479 0.228466C 41.8381 0.580962 41.3858 1.07933 40.7981 1.68232C 39.6179 2.8938 37.9259 4.49423 35.8213 6.10282C 31.6068 9.32565 25.8393 12.5 19.5 12.5L 19.5 13.5C 26.1607 13.5 32.1432 10.1743 36.4287 6.89718C 38.5741 5.25577 40.3196 3.6062 41.5144 2.38018C 42.1142 1.76442 42.5838 1.24716 42.899 0.888722C 43.0576 0.708192 43.1803 0.564385 43.2616 0.467822C 43.3027 0.418906 43.3346 0.380453 43.3554 0.355213C 43.366 0.342281 43.3745 0.332011 43.3798 0.325448C 43.3826 0.322013 43.3849 0.31919 43.3863 0.317461C 43.3871 0.316519 43.3877 0.315695 43.3881 0.315223C 43.3883 0.314948 43.3886 0.314685 43.3887 0.314547C 43.3888 0.314333 43.389 0.314169 43 0ZM 19.5 12.5C 13.0743 12.5056 8.30369 11.033 5.08453 9.54602C 3.48621 8.80931 2.30468 8.08139 1.50336 7.5264C 1.10732 7.25242 0.817346 7.02921 0.618856 6.86884C 0.521716 6.79042 0.452038 6.73143 0.40336 6.6893C 0.380024 6.66911 0.364029 6.65496 0.352336 6.6445C 0.346978 6.63971 0.343694 6.63674 0.341009 6.6343C 0.339907 6.6333 0.339444 6.63287 0.338892 6.63237C 0.338736 6.63223 0.338642 6.63214 0.33872 6.63221C 0.338741 6.63223 0.338846 6.63233 0.338856 6.63234C 0.338986 6.63246 0.33914 6.6326 0 7C -0.33914 7.3674 -0.338936 7.36759 -0.338708 7.3678C -0.338598 7.3679 -0.338344 7.36813 -0.338125 7.36834C -0.337807 7.36863 -0.337149 7.36923 -0.336512 7.36982C -0.335477 7.37076 -0.33356 7.37252 -0.331487 7.3744C -0.327825 7.37773 -0.321587 7.38336 -0.31425 7.38993C -0.300553 7.40217 -0.278461 7.42171 -0.251016 7.44547C -0.198132 7.49122 -0.115466 7.56114 -0.00948105 7.64678C 0.198279 7.81454 0.517677 8.06008 0.934145 8.3486C 1.75782 8.91861 3.01379 9.69069 4.66547 10.454C 7.94631 11.967 12.9257 13.4944 19.5 13.5L 19.5 12.5Z"/>
<path id="path4_fill" d="M 0 13L 11.5 0L 2 19.5L 0 13Z"/>
<path id="path5_stroke" d="M 11.5 0L 11.8892 -0.313876L 11.5177 -0.774595L 11.1255 -0.331287L 11.5 0ZM 0 13L -0.374498 12.6687L -0.560405 12.8789L -0.47789 13.147L 0 13ZM 2 19.5L 1.52211 19.647L 1.89467 20.8578L 2.44949 19.719L 2 19.5ZM 36.8892 30.6861L 11.8892 -0.313876L 11.1108 0.313876L 36.1108 31.3139L 36.8892 30.6861ZM 11.1255 -0.331287L -0.374498 12.6687L 0.374498 13.3313L 11.8745 0.331287L 11.1255 -0.331287ZM -0.47789 13.147L 1.52211 19.647L 2.47789 19.353L 0.47789 12.853L -0.47789 13.147ZM 2.44949 19.719L 11.9495 0.218985L 11.0505 -0.218985L 1.55051 19.281L 2.44949 19.719Z"/>
</defs>
</svg>
